<?xml version="1.0" encoding="UTF-8" standalone="no"?>
<!-- Generator: Adobe Illustrator 16.0.0, SVG Export Plug-In . SVG Version: 6.00 Build 0)  -->

<svg
   xmlns:dc="http://purl.org/dc/elements/1.1/"
   xmlns:cc="http://creativecommons.org/ns#"
   xmlns:rdf="http://www.w3.org/1999/02/22-rdf-syntax-ns#"
   xmlns:svg="http://www.w3.org/2000/svg"
   xmlns="http://www.w3.org/2000/svg"
   xmlns:sodipodi="http://sodipodi.sourceforge.net/DTD/sodipodi-0.dtd"
   xmlns:inkscape="http://www.inkscape.org/namespaces/inkscape"
   version="1.1"
   id="Capa_1"
   x="0px"
   y="0px"
   width="29"
   height="29"
   viewBox="0 0 28.978816 28.978874"
   xml:space="preserve"
   sodipodi:docname="envelope-of-white-paper.svg"
   inkscape:version="0.92.0 r15299"><metadata
     id="metadata41"><rdf:RDF><cc:Work
         rdf:about=""><dc:format>image/svg+xml</dc:format><dc:type
           rdf:resource="http://purl.org/dc/dcmitype/StillImage" /><dc:title /></cc:Work></rdf:RDF></metadata><defs
     id="defs39" /><sodipodi:namedview
     pagecolor="#ffffff"
     bordercolor="#666666"
     borderopacity="1"
     objecttolerance="10"
     gridtolerance="10"
     guidetolerance="10"
     inkscape:pageopacity="0"
     inkscape:pageshadow="2"
     inkscape:window-width="1920"
     inkscape:window-height="1018"
     id="namedview37"
     showgrid="false"
     inkscape:zoom="9.9216797"
     inkscape:cx="-5.8957705"
     inkscape:cy="21.022377"
     inkscape:window-x="1358"
     inkscape:window-y="-8"
     inkscape:window-maximized="1"
     inkscape:current-layer="Capa_1" /><g
     id="g4"
     transform="matrix(0.03875817,0,0,0.03875818,4.5745453,4.5745514)"
     style="fill:#23bfe6;fill-opacity:1"><path
       d="M 498.208,68.235 C 489.263,59.288 478.507,54.817 465.947,54.817 H 45.682 C 33.12,54.817 22.364,59.288 13.418,68.235 4.471,77.18 0,87.935 0,100.499 v 310.633 c 0,12.566 4.471,23.312 13.418,32.257 8.945,8.953 19.701,13.422 32.264,13.422 h 420.266 c 12.56,0 23.315,-4.469 32.261,-13.422 8.949,-8.945 13.418,-19.697 13.418,-32.257 V 100.499 C 511.626,87.935 507.158,77.18 498.208,68.235 Z m -23.13,342.89 c 0,2.475 -0.903,4.616 -2.714,6.424 -1.81,1.81 -3.949,2.706 -6.42,2.706 H 45.679 c -2.474,0 -4.616,-0.896 -6.423,-2.706 -1.809,-1.808 -2.712,-3.949 -2.712,-6.424 V 191.858 c 6.09,6.852 12.657,13.134 19.7,18.843 51.012,39.209 91.553,71.374 121.627,96.5 9.707,8.186 17.607,14.561 23.697,19.13 6.09,4.571 14.322,9.185 24.694,13.846 10.373,4.668 20.129,6.991 29.265,6.991 h 0.287 0.284 c 9.134,0 18.894,-2.323 29.263,-6.991 10.376,-4.661 18.613,-9.274 24.701,-13.846 6.089,-4.569 13.99,-10.944 23.698,-19.13 30.074,-25.126 70.61,-57.291 121.624,-96.5 7.043,-5.708 13.613,-11.991 19.694,-18.843 z m 0,-303.205 v 3.14 c 0,11.229 -4.421,23.745 -13.271,37.543 -8.851,13.798 -18.419,24.792 -28.691,32.974 -36.74,28.936 -74.897,59.101 -114.495,90.506 -1.14,0.951 -4.474,3.757 -9.996,8.418 -5.514,4.668 -9.894,8.241 -13.131,10.712 -3.241,2.478 -7.471,5.475 -12.703,8.993 -5.236,3.518 -10.041,6.14 -14.418,7.851 -4.377,1.707 -8.47,2.562 -12.275,2.562 h -0.284 -0.287 c -3.806,0 -7.895,-0.855 -12.275,-2.562 -4.377,-1.711 -9.185,-4.333 -14.417,-7.851 -5.231,-3.519 -9.467,-6.516 -12.703,-8.993 -3.234,-2.471 -7.614,-6.044 -13.132,-10.712 -5.52,-4.661 -8.854,-7.467 -9.995,-8.418 -39.589,-31.406 -77.75,-61.57 -114.487,-90.506 -27.981,-22.076 -41.969,-49.106 -41.969,-81.083 0,-2.472 0.903,-4.615 2.712,-6.421 1.809,-1.809 3.949,-2.714 6.423,-2.714 H 465.95 c 1.52,0.855 2.854,1.093 3.997,0.715 1.143,-0.385 1.998,0.331 2.566,2.138 0.571,1.809 1.095,2.664 1.57,2.57 0.477,-0.096 0.764,1.093 0.859,3.571 0.089,2.473 0.137,3.718 0.137,3.718 v 3.849 z"
       id="path2"
       inkscape:connector-curvature="0"
       style="fill:#23bfe6;fill-opacity:1" /></g><g
     id="g6"
     transform="translate(-5e-4,-427.83213)" /><g
     id="g8"
     transform="translate(-5e-4,-427.83213)" /><g
     id="g10"
     transform="translate(-5e-4,-427.83213)" /><g
     id="g12"
     transform="translate(-5e-4,-427.83213)" /><g
     id="g14"
     transform="translate(-5e-4,-427.83213)" /><g
     id="g16"
     transform="translate(-5e-4,-427.83213)" /><g
     id="g18"
     transform="translate(-5e-4,-427.83213)" /><g
     id="g20"
     transform="translate(-5e-4,-427.83213)" /><g
     id="g22"
     transform="translate(-5e-4,-427.83213)" /><g
     id="g24"
     transform="translate(-5e-4,-427.83213)" /><g
     id="g26"
     transform="translate(-5e-4,-427.83213)" /><g
     id="g28"
     transform="translate(-5e-4,-427.83213)" /><g
     id="g30"
     transform="translate(-5e-4,-427.83213)" /><g
     id="g32"
     transform="translate(-5e-4,-427.83213)" /><g
     id="g34"
     transform="translate(-5e-4,-427.83213)" /></svg>