<?xml version="1.0" encoding="UTF-8" standalone="no"?>
<svg
   xmlns:dc="http://purl.org/dc/elements/1.1/"
   xmlns:cc="http://creativecommons.org/ns#"
   xmlns:rdf="http://www.w3.org/1999/02/22-rdf-syntax-ns#"
   xmlns:svg="http://www.w3.org/2000/svg"
   xmlns="http://www.w3.org/2000/svg"
   xmlns:sodipodi="http://sodipodi.sourceforge.net/DTD/sodipodi-0.dtd"
   xmlns:inkscape="http://www.inkscape.org/namespaces/inkscape"
   id="Layer_1"
   data-name="Layer 1"
   viewBox="0 0 419.56 70.730001"
   version="1.1"
   sodipodi:docname="Banesco_logo_menu.svg"
   width="419.56"
   height="70.730003"
   inkscape:version="0.92.0 r15299">
  <metadata
     id="metadata31">
    <rdf:RDF>
      <cc:Work
         rdf:about="">
        <dc:format>image/svg+xml</dc:format>
        <dc:type
           rdf:resource="http://purl.org/dc/dcmitype/StillImage" />
        <dc:title>Banesco_Iconos</dc:title>
      </cc:Work>
    </rdf:RDF>
  </metadata>
  <sodipodi:namedview
     pagecolor="#ffffff"
     bordercolor="#666666"
     borderopacity="1"
     objecttolerance="10"
     gridtolerance="10"
     guidetolerance="10"
     inkscape:pageopacity="0"
     inkscape:pageshadow="2"
     inkscape:window-width="1920"
     inkscape:window-height="1018"
     id="namedview29"
     showgrid="false"
     inkscape:zoom="0.48005502"
     inkscape:cx="-396.79387"
     inkscape:cy="38.830007"
     inkscape:window-x="1358"
     inkscape:window-y="-8"
     inkscape:window-maximized="1"
     inkscape:current-layer="Layer_1" />
  <defs
     id="defs4">
    <style
       id="style2">.cls-1,.cls-3{fill:#003b71;}.cls-1,.cls-4{fill-rule:evenodd;}.cls-2{fill:#007852;}.cls-4{fill:#e2231a;}</style>
  </defs>
  <title
     id="title6">Banesco_Iconos</title>
  <path
     class="cls-1"
     d="m 29.99,40.3 c 7.24,0 12.54,0.39 12.54,6.45 0,5.2 -4.24,6.35 -9.84,6.35 H 22.76 V 40.3 Z m 0.77,-24.14 c 4.83,0 9.26,0.09 9.26,5.48 0,4 -3.28,6.05 -7.81,6.05 H 22.76 V 16.16 Z m 3.08,53.09 c 18,0 29.9,-5.39 29.9,-20.87 0,-7.5 -4,-14 -11.57,-15.87 4.44,-2.79 9.06,-8 9.06,-15.1 C 61.23,3.66 48.79,0 33.16,0 H 0 v 69.26 z"
     id="path8"
     inkscape:connector-curvature="0"
     style="fill:#ffffff;fill-rule:evenodd" />
  <path
     class="cls-1"
     d="m 125.56,69.25 v -1 c -2.61,-2.12 -2.71,-3.56 -2.71,-6.44 V 38.28 c 0,-12 -1.45,-20.87 -25.36,-20.87 -20,0 -27.58,6.25 -27.58,16.93 H 89.2 c 0.48,-4.33 4.24,-4.91 7,-4.91 2.12,0 6.56,0.48 6.56,4.13 0,9.42 -36,-1 -36,21.93 0,10.49 8.48,15.19 18,15.19 7.52,0 13.31,-1.53 19,-6.83 l 1,5.39 z M 93.93,59.34 c -4,0 -6.37,-1.73 -6.37,-4.23 0,-6.54 8.68,-5 15.23,-8.17 0.48,6.93 -1.83,12.41 -8.87,12.41"
     id="path10"
     inkscape:connector-curvature="0"
     style="fill:#ffffff;fill-rule:evenodd" />
  <path
     class="cls-1"
     d="m 128.82,69.25 h 20.06 V 43.57 c 0,-6.45 1.64,-10.39 7.81,-10.39 5.69,0 7,4.42 7,9.43 v 26.64 h 20.06 v -30.2 c 0,-13.86 -6.27,-21.65 -19.58,-21.65 -7.62,0 -12.53,3.27 -17.06,9.33 v -7.89 h -18.29 z"
     id="path12"
     inkscape:connector-curvature="0"
     style="fill:#ffffff;fill-rule:evenodd" />
  <path
     class="cls-1"
     d="m 208.89,38.4 c 0,-5.38 3.38,-8.75 9.36,-8.75 a 9.08,9.08 0 0 1 8.87,8.75 z m 38.29,10.2 c 0.29,-18.28 -11,-31.16 -29.7,-31.16 -16.2,0 -28.64,10.58 -28.64,27.13 0,16.93 12.55,26.160003 28.75,26.160003 11.77,0 24.49,-4.130003 28,-16.640003 h -19.2 a 8,8 0 0 1 -7.52,4.43 9.73,9.73 0 0 1 -9.94,-9.91 z"
     id="path14"
     inkscape:connector-curvature="0"
     style="fill:#ffffff;fill-rule:evenodd" />
  <path
     class="cls-1"
     d="m 248.77,53.57 c 1.06,13.56 13.79,17.12 25.35,17.12 18.52,0 27.2,-7.11 27.2,-17.6 0,-18.85 -31.92,-14.14 -31.92,-21.15 0,-2.51 2.22,-3.57 5.7,-3.57 a 6.34,6.34 0 0 1 4,1.25 5.29,5.29 0 0 1 1.93,3.66 h 18.22 C 298.14,19.91 285.22,17.4 274.22,17.4 c -10.51,0 -23.91,3.75 -23.91,16.64 0,19.52 30.95,13.08 30.95,21.16 0,3.56 -3.28,4.52 -6.36,4.52 a 8.13,8.13 0 0 1 -4.92,-1.54 5.6,5.6 0 0 1 -2.12,-4.62 z"
     id="path16"
     inkscape:connector-curvature="0"
     style="fill:#ffffff;fill-rule:evenodd" />
  <path
     class="cls-1"
     d="M 359.51,38.09 C 358.06,23.18 345.33,17.4 331.83,17.4 c -16.68,0 -28.84,9.91 -28.84,27.13 0,17 12.54,26.16 28.84,26.16 14,0 26.33,-5.67 28.07,-21 h -20.26 c -0.57,3.94 -2.61,7.51 -7.81,7.51 -5.88,0 -8.77,-5 -8.77,-12.6 0,-6 1.26,-13.75 8.77,-13.75 a 6.78,6.78 0 0 1 5.21,2 7.51,7.51 0 0 1 2.12,5.2 z"
     id="path18"
     inkscape:connector-curvature="0"
     style="fill:#ffffff;fill-rule:evenodd" />
  <path
     class="cls-1"
     d="m 390.99,30.87 c 5.21,-0.29 8.49,5.29 8.49,12.7 0,9.52 -3.27,13.66 -8.68,13.66 -5.11,0 -8.68,-4.13 -8.68,-13.66 0,-5.68 2,-12.7 8.88,-12.7 m -28.94,13.76 c 0,17.22 12.53,26.06 28.73,26.06 16.2,0 28.77,-8.66 28.77,-27.12 0,-15.68 -11,-26.16 -28.83,-26.16 -17.07,0 -28.64,9.72 -28.64,27.22"
     id="path20"
     inkscape:connector-curvature="0"
     style="fill:#ffffff;fill-rule:evenodd" />
</svg>
