<?xml version="1.0" encoding="utf-8"?>
<!-- Generator: Adobe Illustrator 21.1.0, SVG Export Plug-In . SVG Version: 6.00 Build 0)  -->
<svg version="1.1" id="Layer_1" xmlns="http://www.w3.org/2000/svg" xmlns:xlink="http://www.w3.org/1999/xlink" x="0px" y="0px"
	 viewBox="0 0 29 28.4" style="enable-background:new 0 0 29 28.4;" xml:space="preserve">
<style type="text/css">
	.st0{clip-path:url(#SVGID_2_);}
	.st1{clip-path:url(#SVGID_4_);fill:#F2F2F2;stroke:#979797;stroke-miterlimit:10;}
	.st2{fill:#CCCCCC;}
	.st3{fill:#E9E9E9;stroke:#D1D1D1;stroke-miterlimit:10;}
	.st4{fill:none;stroke:#CCCCCC;stroke-miterlimit:10;}
	.st5{fill:#5C5C5C;}
	.st6{fill:#FFFFFF;stroke:#999999;stroke-miterlimit:10;}
	.st7{fill:#333333;}
	.st8{fill:#666666;}
	.st9{fill:#FFFFFF;stroke:#666666;stroke-miterlimit:10;}
	.st10{fill:#D8D8D8;stroke:#666666;stroke-miterlimit:10;}
	.st11{fill:#999999;}
	.st12{fill:none;stroke:#979797;stroke-miterlimit:10;}
	.st13{fill:#808080;}
	.st14{fill:#F2F2F2;}
	.st15{fill:#E6E6E6;}
	.st16{fill:#F7F7F7;}
	.st17{fill:#D6D6D6;}
	.st18{fill:#ADADAD;}
	.st19{fill:#FFFFFF;}
	.st20{fill:none;stroke:#666666;stroke-miterlimit:10;}
	.st21{fill:none;stroke:#000000;stroke-miterlimit:10;}
	.st22{clip-path:url(#SVGID_6_);}
	.st23{clip-path:url(#SVGID_8_);fill:#F2F2F2;stroke:#979797;stroke-miterlimit:10;}
	.st24{opacity:0.5;fill:#FFFFFF;}
	.st25{fill:#E6E7E8;}
	.st26{fill:#929497;}
	.st27{fill:#D1D3D4;}
	.st28{opacity:0.5;fill:#333333;}
	.st29{clip-path:url(#SVGID_10_);}
	.st30{clip-path:url(#SVGID_12_);fill:#F2F2F2;stroke:#979797;stroke-miterlimit:10;}
	.st31{fill:#C6C6C6;}
	.st32{clip-path:url(#SVGID_14_);}
	.st33{clip-path:url(#SVGID_16_);fill:#FAFAFA;}
	.st34{clip-path:url(#SVGID_18_);}
	.st35{clip-path:url(#SVGID_20_);}
	.st36{clip-path:url(#SVGID_22_);fill:#FFFFFF;}
	.st37{clip-path:url(#SVGID_24_);}
	.st38{clip-path:url(#SVGID_26_);fill:none;stroke:#979797;stroke-width:2;stroke-miterlimit:10;}
	.st39{clip-path:url(#SVGID_28_);}
	.st40{clip-path:url(#SVGID_30_);}
	.st41{clip-path:url(#SVGID_32_);fill:#FFFFFF;}
	.st42{clip-path:url(#SVGID_34_);}
	.st43{clip-path:url(#SVGID_36_);fill:none;stroke:#979797;stroke-width:2;stroke-miterlimit:10;}
	.st44{clip-path:url(#SVGID_38_);}
	.st45{clip-path:url(#SVGID_40_);}
	.st46{clip-path:url(#SVGID_42_);fill:#FFFFFF;}
	.st47{clip-path:url(#SVGID_44_);}
	.st48{clip-path:url(#SVGID_46_);fill:none;stroke:#979797;stroke-width:2;stroke-miterlimit:10;}
	.st49{clip-path:url(#SVGID_48_);}
	.st50{fill:#424242;}
	.st51{clip-path:url(#SVGID_48_);fill:#424242;}
	.st52{clip-path:url(#SVGID_50_);}
	.st53{clip-path:url(#SVGID_52_);}
	.st54{clip-path:url(#SVGID_54_);fill:#E9E9E9;}
	.st55{clip-path:url(#SVGID_56_);}
	.st56{clip-path:url(#SVGID_58_);fill:none;stroke:#979797;stroke-width:2;stroke-miterlimit:10;}
	.st57{clip-path:url(#SVGID_60_);}
	.st58{clip-path:url(#SVGID_62_);}
	.st59{clip-path:url(#SVGID_64_);fill:#E9E9E9;}
	.st60{clip-path:url(#SVGID_66_);}
	.st61{clip-path:url(#SVGID_68_);fill:none;stroke:#979797;stroke-width:2;stroke-miterlimit:10;}
	.st62{clip-path:url(#SVGID_70_);}
	.st63{clip-path:url(#SVGID_72_);}
	.st64{clip-path:url(#SVGID_74_);fill:#E9E9E9;}
	.st65{clip-path:url(#SVGID_76_);}
	.st66{clip-path:url(#SVGID_78_);fill:none;stroke:#979797;stroke-width:2;stroke-miterlimit:10;}
	.st67{clip-path:url(#SVGID_82_);}
	.st68{clip-path:url(#SVGID_84_);fill:#979797;}
	.st69{clip-path:url(#SVGID_86_);}
	.st70{clip-path:url(#SVGID_88_);fill:none;stroke:#979797;stroke-width:2;stroke-miterlimit:10;}
	.st71{clip-path:url(#SVGID_90_);}
	.st72{clip-path:url(#SVGID_92_);fill:#979797;}
	.st73{clip-path:url(#SVGID_94_);}
	.st74{clip-path:url(#SVGID_96_);fill:none;stroke:#979797;stroke-width:2;stroke-miterlimit:10;}
	.st75{clip-path:url(#SVGID_98_);}
	.st76{clip-path:url(#SVGID_100_);fill:#979797;}
	.st77{clip-path:url(#SVGID_102_);}
	.st78{clip-path:url(#SVGID_104_);fill:none;stroke:#979797;stroke-width:2;stroke-miterlimit:10;}
	.st79{clip-path:url(#SVGID_106_);}
	.st80{clip-path:url(#SVGID_106_);fill:#FFFFFF;}
</style>
<g>
	<path d="M21.6,18.3c0,0.2,0,0.4-0.1,0.7c-0.1,0.3-0.1,0.5-0.2,0.7c-0.1,0.3-0.5,0.7-1.2,1.1c-0.6,0.3-1.3,0.5-1.9,0.5
		c-0.2,0-0.4,0-0.5,0c-0.2,0-0.4-0.1-0.6-0.1S16.7,21,16.6,21c-0.1,0-0.3-0.1-0.6-0.2c-0.3-0.1-0.4-0.2-0.5-0.2
		c-0.7-0.2-1.2-0.5-1.8-0.8c-0.9-0.5-1.7-1.3-2.7-2.2c-0.9-0.9-1.6-1.8-2.2-2.7c-0.3-0.5-0.6-1.1-0.8-1.8c0-0.1-0.1-0.2-0.2-0.5
		c-0.1-0.3-0.2-0.5-0.2-0.6c0-0.1-0.1-0.3-0.1-0.5c-0.1-0.2-0.1-0.4-0.1-0.6c0-0.2,0-0.4,0-0.5c0-0.6,0.2-1.2,0.5-1.9
		C8.3,8,8.6,7.6,9,7.4c0.2-0.1,0.4-0.1,0.7-0.2c0.3-0.1,0.5-0.1,0.7-0.1c0.1,0,0.2,0,0.2,0c0.1,0,0.3,0.3,0.5,0.8
		c0.1,0.1,0.2,0.3,0.3,0.5c0.1,0.2,0.2,0.4,0.4,0.6c0.1,0.2,0.2,0.4,0.3,0.5c0,0,0.1,0.1,0.2,0.3s0.2,0.3,0.2,0.4
		c0,0.1,0.1,0.2,0.1,0.3c0,0.1-0.1,0.3-0.3,0.5c-0.2,0.2-0.4,0.4-0.6,0.6c-0.2,0.2-0.4,0.3-0.6,0.5c-0.2,0.2-0.3,0.3-0.3,0.5
		c0,0.1,0,0.1,0,0.2s0.1,0.2,0.1,0.2s0.1,0.1,0.1,0.2c0.1,0.1,0.1,0.2,0.1,0.2c0.5,0.9,1.1,1.7,1.7,2.4c0.7,0.7,1.4,1.2,2.4,1.7
		c0,0,0.1,0,0.2,0.1s0.2,0.1,0.2,0.1s0.1,0.1,0.2,0.1c0.1,0,0.2,0,0.2,0c0.1,0,0.3-0.1,0.5-0.3s0.4-0.4,0.5-0.6
		c0.2-0.2,0.4-0.4,0.6-0.6c0.2-0.2,0.4-0.3,0.5-0.3c0.1,0,0.2,0,0.3,0.1c0.1,0,0.2,0.1,0.4,0.2c0.1,0.1,0.2,0.2,0.3,0.2
		c0.2,0.1,0.3,0.2,0.5,0.3c0.2,0.1,0.4,0.2,0.6,0.4c0.2,0.1,0.4,0.2,0.5,0.3c0.5,0.2,0.7,0.4,0.8,0.5C21.5,18.1,21.6,18.2,21.6,18.3
		z"/>
</g>
</svg>
