<svg id="Layer_1" data-name="Layer 1" xmlns="http://www.w3.org/2000/svg" viewBox="0 0 28.96 28.38"><defs><style>.cls-1{fill:#fff;}</style></defs><title>icon_phone-05</title><path class="cls-1" d="M21.55,18.29a3.29,3.29,0,0,1-.1.71,3.87,3.87,0,0,1-.21.69A2.69,2.69,0,0,1,20,20.75a3.9,3.9,0,0,1-1.87.51,4,4,0,0,1-.53,0A4.1,4.1,0,0,1,17,21.1L16.56,21,16,20.75l-.49-.18a9.08,9.08,0,0,1-1.76-.83,15.14,15.14,0,0,1-2.65-2.17,15.19,15.19,0,0,1-2.17-2.65,9.1,9.1,0,0,1-.83-1.76l-.18-.49-.21-.56q-.06-.16-.15-.47a4.08,4.08,0,0,1-.13-.58,4,4,0,0,1,0-.53,3.9,3.9,0,0,1,.51-1.87A2.7,2.7,0,0,1,9,7.43a4.05,4.05,0,0,1,.69-.21,3.36,3.36,0,0,1,.71-.1.57.57,0,0,1,.21,0q.18.06.53.76l.3.54.35.64.31.54.18.25a2.88,2.88,0,0,1,.22.36.66.66,0,0,1,.07.29.83.83,0,0,1-.29.5,4.87,4.87,0,0,1-.62.55,6.27,6.27,0,0,0-.62.53.76.76,0,0,0-.29.46.69.69,0,0,0,0,.23,2.1,2.1,0,0,0,.08.21l.14.24.12.19a10.52,10.52,0,0,0,1.75,2.36,10.53,10.53,0,0,0,2.36,1.75l.19.12.24.14.21.09a.68.68,0,0,0,.23,0,.77.77,0,0,0,.46-.29,5.93,5.93,0,0,0,.53-.62,4.93,4.93,0,0,1,.55-.62.83.83,0,0,1,.5-.29.67.67,0,0,1,.29.07,2.91,2.91,0,0,1,.36.22l.25.18.54.31.64.35.54.3q.7.35.76.53A.55.55,0,0,1,21.55,18.29Z"/></svg>